HIERARCHY
ROOT Hips
{
	OFFSET 0.000000 0.000000 0.000000
	CHANNELS 6 Xposition Yposition Zposition Xrotation Yrotation Zrotation
	JOINT LeftUpLeg_virtual
	{
		OFFSET 0.000000 0.000000 0.000000
		CHANNELS 3 Xrotation Yrotation Zrotation
		JOINT LeftUpLeg
		{
			OFFSET 10.205400 -3.823500 0.155100
			CHANNELS 3 Xrotation Yrotation Zrotation
			JOINT LeftLeg
			{
				OFFSET 0.708757 -12.982077 0.567790
				CHANNELS 3 Xrotation Yrotation Zrotation
				JOINT LeftFoot
				{
					OFFSET -0.708756 -10.717838 -2.184338
					CHANNELS 3 Xrotation Yrotation Zrotation
					JOINT LeftToeBase
					{
						OFFSET 0.108149 -7.191104 7.560241
						CHANNELS 3 Xrotation Yrotation Zrotation
						JOINT LeftToe_End
						{
							OFFSET 0.070230 0.081724 4.490308
							CHANNELS 3 Xrotation Yrotation Zrotation
							End Site
							{
								OFFSET 0 0 0
							}
						}
					}
				}
			}
		}
	}
	JOINT RightUpLeg_virtual
	{
		OFFSET 0.000000 0.000000 0.000000
		CHANNELS 3 Xrotation Yrotation Zrotation
		JOINT RightUpLeg
		{
			OFFSET -10.205400 -3.823500 0.005500
			CHANNELS 3 Xrotation Yrotation Zrotation
			JOINT RightLeg
			{
				OFFSET -0.708756 -12.982134 0.610632
				CHANNELS 3 Xrotation Yrotation Zrotation
				JOINT RightFoot
				{
					OFFSET 0.708754 -10.717769 -1.945823
					CHANNELS 3 Xrotation Yrotation Zrotation
					JOINT RightToeBase
					{
						OFFSET -0.108140 -7.191069 7.372968
						CHANNELS 3 Xrotation Yrotation Zrotation
						JOINT RightToe_End
						{
							OFFSET -0.070227 0.081735 4.479403
							CHANNELS 3 Xrotation Yrotation Zrotation
							End Site
							{
								OFFSET 0 0 0
							}
						}
					}
				}
			}
		}
	}
	JOINT Spine_virtual
	{
		OFFSET 0.000000 0.000000 0.000000
		CHANNELS 3 Xrotation Yrotation Zrotation
		JOINT Spine
		{
			OFFSET 0.000000 6.876099 0.125700
			CHANNELS 3 Xrotation Yrotation Zrotation
			JOINT Spine1
			{
				OFFSET 0.000000 5.730043 0.104720
				CHANNELS 3 Xrotation Yrotation Zrotation
				JOINT Spine1_split
				{
					OFFSET 0.000000 5.730043 0.104720
					CHANNELS 3 Xrotation Yrotation Zrotation
					JOINT Spine2
					{
						OFFSET 0.000000 5.730043 0.104720
						CHANNELS 3 Xrotation Yrotation Zrotation
						JOINT Neck_virtual
						{
							OFFSET 0.000000 0.000000 0.000000
							CHANNELS 3 Xrotation Yrotation Zrotation
							JOINT Neck
							{
								OFFSET 0.000000 10.314075 0.188496
								CHANNELS 3 Xrotation Yrotation Zrotation
								JOINT Head
								{
									OFFSET 0.000000 7.643700 -2.377400
									CHANNELS 3 Xrotation Yrotation Zrotation
									JOINT HeadTop_End
									{
										OFFSET 0.000000 43.788605 -13.619600
										CHANNELS 3 Xrotation Yrotation Zrotation
										End Site
										{
											OFFSET 0 0 0
										}
									}
								}
							}
						}
						JOINT LeftShoulder_virtual
						{
							OFFSET 0.000000 0.000000 0.000000
							CHANNELS 3 Xrotation Yrotation Zrotation
							JOINT LeftShoulder
							{
								OFFSET 2.196100 4.412489 0.087492
								CHANNELS 3 Xrotation Yrotation Zrotation
								JOINT LeftShoulder_split
								{
									OFFSET 2.196100 4.412489 0.087492
									CHANNELS 3 Xrotation Yrotation Zrotation
									JOINT LeftArm
									{
										OFFSET 8.771219 -2.981674 -0.026999
										CHANNELS 3 Xrotation Yrotation Zrotation
										JOINT LeftForeArm
										{
											OFFSET 8.512804 0.000000 -0.000000
											CHANNELS 3 Xrotation Yrotation Zrotation
											JOINT LeftHand
											{
												OFFSET 18.484802 0.000000 -0.000000
												CHANNELS 3 Xrotation Yrotation Zrotation
												End Site
												{
													OFFSET 0 0 0
												}
											}
										}
									}
								}
							}
						}
						JOINT RightShoulder_virtual
						{
							OFFSET 0.000000 0.000000 0.000000
							CHANNELS 3 Xrotation Yrotation Zrotation
							JOINT RightShoulder
							{
								OFFSET -2.196100 4.412496 0.070690
								CHANNELS 3 Xrotation Yrotation Zrotation
								JOINT RightShoulder_split
								{
									OFFSET -2.196100 4.412496 0.070690
									CHANNELS 3 Xrotation Yrotation Zrotation
									JOINT RightArm
									{
										OFFSET -8.771282 -2.981682 -0.094208
										CHANNELS 3 Xrotation Yrotation Zrotation
										JOINT RightForeArm
										{
											OFFSET -8.494598 0.000000 0.000000
											CHANNELS 3 Xrotation Yrotation Zrotation
											JOINT RightHand
											{
												OFFSET -18.483803 0.000000 0.000001
												CHANNELS 3 Xrotation Yrotation Zrotation
												End Site
												{
													OFFSET 0 0 0
												}
											}
										}
									}
								}
							}
						}
					}
				}
			}
		}
	}
}
MOTION
Frames: 7
Frame Time: 0.03333333
0.966726 27.253590 -0.978737 0.000000 0.000000 0.000000 -5.397676 -46.011385 -0.112448 -38.222753 0.278062 24.761907 64.807055 -10.597505 3.829537 -23.765215 -5.113895 -21.315760 -1.594042 0.000020 -0.000001 0.000000 0.000000 0.000000 -5.397676 -46.011385 -0.112448 -13.650829 -9.632060 -38.353817 66.374808 0.334447 -6.381251 -39.259080 -15.971562 30.409740 -0.012997 -0.000006 -0.000005 0.000000 0.000000 0.000000 -5.397676 -46.011385 -0.112448 9.463315 6.952812 -1.707176 2.187715 0.989900 -0.915630 0.000000 0.000000 0.000000 0.000000 0.000000 0.000000 2.202829 0.982772 -0.894153 0.084651 13.220556 4.538680 8.920925 20.138138 -4.130232 0.000000 0.000000 0.000000 2.202829 0.982772 -0.894153 1.117178 3.546343 -8.633507 0.000000 0.000000 0.000000 -53.487024 4.935524 -51.502983 179.999991 -73.641932 179.999991 0.000000 0.000000 0.000000 2.202829 0.982772 -0.894153 3.036139 13.027208 -5.371437 0.000000 0.000000 0.000000 -48.713708 27.172827 83.457064 179.999978 74.011698 179.999991 0.000000 0.000000 0.000000 
0.861564 27.203392 -0.680351 0.000000 0.000000 0.000000 -5.137273 -45.482848 0.425811 -38.293097 0.628900 24.465796 65.323574 -10.182712 3.365589 -24.552548 -6.239571 -20.841030 -1.565044 -0.000002 0.000002 0.000000 0.000000 0.000000 -5.137273 -45.482848 0.425811 -13.627821 -10.014726 -39.366827 67.563610 -0.419917 -6.472029 -39.741527 -15.442942 29.650097 -0.837824 -0.000011 0.000009 0.000000 0.000000 0.000000 -5.137273 -45.482848 0.425811 9.731881 7.026774 -2.012777 2.523092 1.222476 -1.220269 0.000000 0.000000 0.000000 0.000000 0.000000 0.000000 2.545000 1.213376 -1.187299 -0.119668 13.073312 4.516064 8.975797 19.311233 -3.677647 0.000000 0.000000 0.000000 2.545000 1.213376 -1.187299 1.271899 3.450425 -9.352727 0.000000 0.000000 0.000000 -53.737705 4.019011 -51.821035 179.999964 -75.623834 179.999950 0.000000 0.000000 0.000000 2.545000 1.213376 -1.187299 3.009248 12.882601 -5.845491 0.000000 0.000000 0.000000 -47.901766 26.454246 85.051674 180.000005 74.958198 179.999964 0.000000 0.000000 0.000000 
0.679624 27.401466 -0.399187 0.000000 0.000000 0.000000 -4.055973 -44.412257 1.332603 -38.678282 1.108577 24.219193 64.133373 -9.755626 2.900482 -24.137349 -7.880537 -20.448321 -1.494874 -0.000015 0.000001 0.000000 0.000000 0.000000 -4.055973 -44.412257 1.332603 -14.433827 -10.026476 -40.531244 68.708910 -0.168693 -6.096359 -37.494463 -14.263738 29.080302 -2.914989 -0.005868 0.648591 0.000000 0.000000 0.000000 -4.055973 -44.412257 1.332603 9.789663 7.099308 -2.119215 2.594819 1.422010 -1.430866 0.000000 0.000000 0.000000 0.000000 0.000000 0.000000 2.620829 1.416630 -1.390369 0.028421 12.927948 4.403652 9.333214 18.379032 -3.294513 0.000000 0.000000 0.000000 2.620829 1.416630 -1.390369 1.435831 2.731612 -9.918498 0.000000 0.000000 0.000000 -55.296436 3.055658 -50.600770 179.999991 -76.200842 -179.999991 0.000000 0.000000 0.000000 2.620829 1.416630 -1.390369 2.991145 13.365086 -6.522568 0.000000 0.000000 0.000000 -48.525817 25.458796 85.967363 -179.999991 76.225444 179.999978 0.000000 0.000000 0.000000 
0.407178 27.782684 -0.169430 0.000000 0.000000 0.000000 -2.382104 -43.069182 2.325372 -39.165544 1.497263 24.144218 61.622882 -9.565781 2.600212 -22.871051 -9.371616 -20.278680 -1.391114 -0.000002 -0.000002 0.000000 0.000000 0.000000 -2.382104 -43.069182 2.325372 -16.619631 -9.226980 -41.341953 70.246699 0.055491 -5.802219 -33.327461 -11.613425 28.118376 -5.770795 -0.110083 2.780241 0.000000 0.000000 0.000000 -2.382104 -43.069182 2.325372 9.657021 7.190567 -2.040010 2.440923 1.603995 -1.508412 0.000000 0.000000 0.000000 0.000000 0.000000 0.000000 2.468077 1.605253 -1.463902 0.438053 12.868365 4.200648 9.672852 17.742344 -2.835045 0.000000 0.000000 0.000000 2.468077 1.605253 -1.463902 1.527208 1.767894 -10.058603 0.000000 0.000000 0.000000 -58.053104 2.576187 -48.372107 179.999978 -75.441379 179.999978 0.000000 0.000000 0.000000 2.468077 1.605253 -1.463902 3.017528 14.740443 -7.053113 0.000000 0.000000 0.000000 -50.762003 24.442658 85.564034 179.999950 77.679058 -179.999991 0.000000 0.000000 0.000000 
0.046927 28.219189 -0.019672 0.000000 0.000000 0.000000 -0.583058 -41.685030 3.129395 -39.556091 1.662156 24.315185 58.464664 -9.744222 2.535651 -21.231879 -10.353675 -20.453367 -1.323525 -0.000025 -0.000009 0.000000 0.000000 0.000000 -0.583058 -41.685030 3.129395 -20.023263 -7.410732 -41.768909 71.746288 0.322970 -5.775433 -28.161575 -7.308530 26.684934 -8.134912 -0.613767 6.516435 0.000000 0.000000 0.000000 -0.583058 -41.685030 3.129395 9.452230 7.311371 -1.858881 2.221745 1.784801 -1.488744 0.000000 0.000000 0.000000 0.000000 0.000000 0.000000 2.248312 1.792058 -1.441854 0.887863 12.885947 4.014179 9.745960 17.528729 -2.217031 0.000000 0.000000 0.000000 2.248312 1.792058 -1.441854 1.571679 0.552136 -9.858628 0.000000 0.000000 0.000000 -61.866132 2.873364 -45.439766 179.999964 -73.828444 179.999978 0.000000 0.000000 0.000000 2.248312 1.792058 -1.441854 3.071820 16.441833 -7.506298 0.000000 0.000000 0.000000 -54.568055 23.205861 84.500402 179.999950 79.632001 179.999991 0.000000 0.000000 0.000000 
-0.376430 28.584293 0.058525 0.000000 0.000000 0.000000 0.903553 -40.257265 3.579574 -39.899831 1.553154 24.714367 55.458025 -10.170234 2.677388 -19.653325 -11.049073 -20.987969 -1.325428 0.000025 -0.000004 0.000000 0.000000 0.000000 0.903553 -40.257265 3.579574 -23.475254 -5.482910 -41.815289 72.392738 0.532696 -5.844799 -23.835333 -2.840313 24.685840 -8.681392 -1.548109 10.319571 0.000000 0.000000 0.000000 0.903553 -40.257265 3.579574 9.258648 7.415016 -1.599092 2.042829 1.909101 -1.401034 0.000000 0.000000 0.000000 0.000000 0.000000 0.000000 2.066701 1.921874 -1.354420 1.248315 12.888967 3.985883 9.483590 17.530324 -1.472082 0.000000 0.000000 0.000000 2.066701 1.921874 -1.354420 1.633793 -1.342998 -9.447624 0.000000 0.000000 0.000000 -66.077046 3.797145 -41.826839 179.999964 -71.931003 179.999964 0.000000 0.000000 0.000000 2.066701 1.921874 -1.354420 3.113277 17.497616 -7.720586 0.000000 0.000000 0.000000 -59.635352 21.822922 84.000965 179.999896 82.412557 -179.999978 0.000000 0.000000 0.000000 
-0.833516 28.775410 0.086624 0.000000 0.000000 0.000000 1.836700 -38.704974 3.686824 -40.406767 1.162758 25.291082 53.316621 -10.563490 2.904717 -18.479056 -11.956309 -21.829600 -1.327233 0.000019 0.000004 0.000000 0.000000 0.000000 1.836700 -38.704974 3.686824 -25.132533 -4.649672 -41.969340 72.839938 0.366104 -5.937539 -24.372849 -2.394433 23.271383 -4.227499 -0.916232 7.974407 0.000000 0.000000 0.000000 1.836700 -38.704974 3.686824 9.100536 7.433694 -1.278178 1.903472 1.871739 -1.243518 0.000000 0.000000 0.000000 0.000000 0.000000 0.000000 1.921911 1.889945 -1.202260 1.506271 12.836044 4.093889 9.124241 17.474901 -0.674049 0.000000 0.000000 0.000000 1.921911 1.889945 -1.202260 1.766466 -3.850424 -9.107187 0.000000 0.000000 0.000000 -69.687334 4.484221 -38.042480 179.999991 -70.397503 -179.999991 0.000000 0.000000 0.000000 1.921911 1.889945 -1.202260 3.128769 17.734904 -7.293240 0.000000 0.000000 0.000000 -65.218901 20.539024 84.445549 179.999773 85.664779 -179.999855 0.000000 0.000000 0.000000 
